<?xml version="1.0" encoding="UTF-8" standalone="no"?>
<svg
   xmlns:dc="http://purl.org/dc/elements/1.1/"
   xmlns:cc="http://creativecommons.org/ns#"
   xmlns:rdf="http://www.w3.org/1999/02/22-rdf-syntax-ns#"
   xmlns:svg="http://www.w3.org/2000/svg"
   xmlns="http://www.w3.org/2000/svg"
   viewBox="0 0 65.756531 94.626663"
   height="94.626663"
   width="65.756531"
   xml:space="preserve"
   id="svg2"
   version="1.1"><metadata
     id="metadata8"><rdf:RDF><cc:Work
         rdf:about=""><dc:format>image/svg+xml</dc:format><dc:type
           rdf:resource="http://purl.org/dc/dcmitype/StillImage" /></cc:Work></rdf:RDF></metadata><defs
     id="defs6"><clipPath
       id="clipPath18"
       clipPathUnits="userSpaceOnUse"><path
         id="path16"
         d="M 0,70.97 H 49.317 V 0 H 0 Z" /></clipPath></defs><g
     transform="matrix(1.3333333,0,0,-1.3333333,0,94.626667)"
     id="g10"><g
       id="g12"><g
         clip-path="url(#clipPath18)"
         id="g14"><g
           transform="translate(15.9768,48.7919)"
           id="g20"><path
             id="path22"
             style="fill:#878787;fill-opacity:1;fill-rule:evenodd;stroke:none"
             d="m 0,0 c 0.801,-0.013 1.44,-0.686 1.428,-1.502 v -32.484 c 0.011,-0.817 -0.629,-1.489 -1.43,-1.499 -0.801,-0.012 -1.459,0.64 -1.471,1.457 v 0.042 32.484 c -0.012,0.816 0.627,1.489 1.428,1.502 z" /></g><g
           transform="translate(11.6257,54.7031)"
           id="g24"><path
             id="path26"
             style="fill:#878787;fill-opacity:1;fill-rule:evenodd;stroke:none"
             d="m 0,0 c 0.8,-0.013 1.438,-0.684 1.428,-1.499 v -5.87 c 0.011,-0.818 -0.629,-1.488 -1.43,-1.5 -0.801,-0.012 -1.46,0.64 -1.471,1.458 v 0.042 5.87 c -0.011,0.817 0.629,1.488 1.431,1.499 z" /></g><g
           transform="translate(20.3279,54.7031)"
           id="g28"><path
             id="path30"
             style="fill:#878787;fill-opacity:1;fill-rule:evenodd;stroke:none"
             d="m 0,0 c 0.8,-0.013 1.439,-0.684 1.428,-1.499 v -5.87 c 0.011,-0.818 -0.629,-1.488 -1.43,-1.5 -0.801,-0.012 -1.459,0.641 -1.471,1.458 0,0.014 0,0.027 0,0.042 v 5.87 c -0.011,0.817 0.63,1.488 1.431,1.499 z" /></g><g
           transform="translate(30.4583,63.5771)"
           id="g32"><path
             id="path34"
             style="fill:#878787;fill-opacity:1;fill-rule:evenodd;stroke:none"
             d="m 0,0 h -16.881 l -7.776,-6.61 V -8.871 H -7.691 L 0,-3.645 Z m 1.45,2.957 c 0.801,0 1.45,-0.662 1.451,-1.478 v -5.915 c 0,-0.495 -0.242,-0.958 -0.646,-1.233 l -8.703,-5.914 c -0.238,-0.16 -0.518,-0.246 -0.804,-0.245 h -18.855 c -0.801,0 -1.451,0.662 -1.451,1.478 v 4.436 c 0.001,0.438 0.192,0.854 0.522,1.135 l 8.702,7.392 c 0.261,0.223 0.589,0.344 0.929,0.344 z" /></g><g
           transform="translate(37.0076,66.5341)"
           id="g36"><path
             id="path38"
             style="fill:#878787;fill-opacity:1;fill-rule:evenodd;stroke:none"
             d="m 0,0 c 0.801,-0.013 1.44,-0.685 1.428,-1.501 v -5.871 c 0.011,-0.816 -0.629,-1.488 -1.43,-1.5 -0.801,-0.011 -1.46,0.642 -1.471,1.458 v 0.042 5.871 C -1.486,-0.685 -0.847,-0.013 -0.045,0 -0.03,0.001 -0.015,0.001 0,0" /></g><g
           transform="translate(26.0701,56.1816)"
           id="g40"><path
             id="path42"
             style="fill:#878787;fill-opacity:1;fill-rule:evenodd;stroke:none"
             d="M 0,0 C 0.53,0.015 1.025,-0.267 1.292,-0.733 L 5.62,-8.092 c 0.422,-0.694 0.21,-1.605 -0.472,-2.035 -0.681,-0.429 -1.575,-0.214 -1.996,0.481 -0.006,0.011 -0.013,0.022 -0.019,0.033 l -4.328,7.358 c -0.421,0.694 -0.21,1.606 0.471,2.035 C -0.506,-0.083 -0.256,-0.007 0,0" /></g><g
           transform="translate(20.4983,45.8349)"
           id="g44"><path
             id="path46"
             style="fill:#878787;fill-opacity:1;fill-rule:evenodd;stroke:none"
             d="m 0,0 h -9.088 l -8.51,-13.737 V -42.878 H 8.509 v 29.141 z m 0.799,2.957 c 0.497,0 0.961,-0.261 1.226,-0.69 l 9.162,-14.786 c 0.146,-0.236 0.223,-0.509 0.223,-0.788 v -31.049 c 0,-0.817 -0.649,-1.479 -1.45,-1.479 h -29.008 c -0.801,0 -1.45,0.662 -1.45,1.479 v 31.049 c 0,0.279 0.078,0.552 0.224,0.788 l 9.161,14.786 c 0.265,0.429 0.728,0.69 1.226,0.69 z" /></g><g
           transform="translate(47.8601,70.9697)"
           id="g48"><path
             id="path50"
             style="fill:#878787;fill-opacity:1;fill-rule:evenodd;stroke:none"
             d="M 0,0 C 0.801,0.004 1.454,-0.654 1.458,-1.472 1.459,-1.978 1.208,-2.449 0.79,-2.723 l -4.317,-2.931 c -0.659,-0.464 -1.562,-0.297 -2.018,0.375 -0.456,0.672 -0.291,1.592 0.367,2.057 0.014,0.01 0.028,0.019 0.042,0.029 l 4.317,2.933 C -0.578,-0.091 -0.292,0 0,0" /></g><g
           transform="translate(47.843,63.5771)"
           id="g52"><path
             id="path54"
             style="fill:#878787;fill-opacity:1;fill-rule:evenodd;stroke:none"
             d="m 0,0 c 0.801,0.012 1.459,-0.641 1.471,-1.457 0.011,-0.817 -0.629,-1.488 -1.43,-1.5 H 0 -4.312 c -0.801,-0.012 -1.459,0.642 -1.47,1.458 -0.012,0.816 0.628,1.487 1.429,1.499 l 0.041,0 z" /></g><g
           transform="translate(43.5569,59.1386)"
           id="g56"><path
             id="path58"
             style="fill:#878787;fill-opacity:1;fill-rule:evenodd;stroke:none"
             d="M 0,0 C 0.277,-0.008 0.547,-0.098 0.776,-0.257 L 5.093,-3.19 C 5.768,-3.632 5.963,-4.547 5.53,-5.234 5.097,-5.921 4.2,-6.121 3.526,-5.68 3.512,-5.67 3.498,-5.661 3.484,-5.651 l -4.317,2.931 c -0.673,0.443 -0.866,1.358 -0.432,2.044 C -0.989,-0.24 -0.509,0.017 0,0" /></g></g></g></g></svg>