<?xml version="1.0" encoding="UTF-8" standalone="no"?>
<svg
   xmlns:dc="http://purl.org/dc/elements/1.1/"
   xmlns:cc="http://creativecommons.org/ns#"
   xmlns:rdf="http://www.w3.org/1999/02/22-rdf-syntax-ns#"
   xmlns:svg="http://www.w3.org/2000/svg"
   xmlns="http://www.w3.org/2000/svg"
   viewBox="0 0 97.59787 94.626663"
   height="94.626663"
   width="97.59787"
   xml:space="preserve"
   id="svg2"
   version="1.1"><metadata
     id="metadata8"><rdf:RDF><cc:Work
         rdf:about=""><dc:format>image/svg+xml</dc:format><dc:type
           rdf:resource="http://purl.org/dc/dcmitype/StillImage" /></cc:Work></rdf:RDF></metadata><defs
     id="defs6"><clipPath
       id="clipPath18"
       clipPathUnits="userSpaceOnUse"><path
         id="path16"
         d="M 0,70.97 H 73.198 V 0 H 0 Z" /></clipPath></defs><g
     transform="matrix(1.3333333,0,0,-1.3333333,0,94.626667)"
     id="g10"><g
       id="g12"><g
         clip-path="url(#clipPath18)"
         id="g14"><g
           transform="translate(25.0179,2.9697)"
           id="g20"><path
             id="path22"
             style="fill:#878787;fill-opacity:1;fill-rule:nonzero;stroke:none"
             d="M 0,0 C 0,0.816 -0.223,1.559 -0.594,2.227 H 0.52 C 1.781,2.227 2.821,1.262 2.895,0 Z m -19.599,2.227 h 14.254 c 1.262,0 2.301,-0.965 2.375,-2.227 h -19.078 c 0.148,1.262 1.187,2.227 2.449,2.227 M 5.567,64.288 c 0.075,0.372 0.446,0.669 0.891,0.669 0.372,0 0.668,-0.148 0.891,-0.445 0.223,-0.298 0.297,-0.595 0.223,-0.892 L -7.721,5.567 H -9.874 Z M 0.594,5.196 h -5.271 l 15.07,57.682 c 0.297,1.187 0.074,2.45 -0.743,3.489 C 8.834,67.406 7.72,68 6.458,68 4.677,68 3.192,66.813 2.747,65.105 L -12.992,5.196 h -6.607 c -2.969,0 -5.419,-2.45 -5.419,-5.419 V -2.97 H 5.938 v 2.822 c 0,2.894 -2.449,5.344 -5.344,5.344" /></g><g
           transform="translate(70.3021,14.4023)"
           id="g24"><path
             id="path26"
             style="fill:#878787;fill-opacity:1;fill-rule:nonzero;stroke:none"
             d="m 0,0 c 0,-0.595 -0.446,-1.04 -1.04,-1.04 h -9.13 v 14.031 h -2.97 V -1.04 h -1.336 c -0.594,0 -1.04,0.445 -1.04,1.04 v 25.092 h 11.062 c 2.524,0 4.528,-2.005 4.528,-4.529 L 0.074,0 Z m -6.533,-11.433 h -27.022 l -0.297,2.45 h 13.956 v 2.969 h -14.327 l -1.708,14.106 h 14.551 v 2.969 h -14.922 l -0.371,2.969 H -21.38 V 17 h -15.664 l -0.446,3.489 0.223,2.227 h 7.572 V 24.2 c 0,1.263 0.966,2.228 2.227,2.228 1.262,0 2.227,-0.965 2.227,-2.228 v -1.484 h 6.682 V 0 c 0,-2.228 1.782,-4.009 4.009,-4.009 h 8.908 z m 2.004,39.494 h -14.03 v -2.375 h -3.935 c -0.52,1.707 -1.856,2.969 -3.489,3.489 0.074,5.493 1.485,10.021 3.935,12.471 1.41,1.411 3.192,2.153 5.27,2.153 5.123,0 9.28,-6.161 9.28,-13.734 h 2.969 c 0,9.206 -5.567,16.704 -12.249,16.704 -2.895,0 -5.419,-1.04 -7.423,-3.044 -3.935,-4.009 -4.677,-10.616 -4.751,-14.55 -1.708,-0.52 -2.97,-1.782 -3.489,-3.489 h -7.498 l -0.52,-5.197 4.231,-34.891 h 32.293 l 1.262,10.393 h 1.559 c 2.227,0 4.009,1.781 4.009,4.009 v 20.563 c 0.074,4.083 -3.266,7.498 -7.424,7.498" /></g></g></g></g></svg>