<?xml version="1.0" encoding="UTF-8" standalone="no"?>
<svg
   xmlns:dc="http://purl.org/dc/elements/1.1/"
   xmlns:cc="http://creativecommons.org/ns#"
   xmlns:rdf="http://www.w3.org/1999/02/22-rdf-syntax-ns#"
   xmlns:svg="http://www.w3.org/2000/svg"
   xmlns="http://www.w3.org/2000/svg"
   viewBox="0 0 82.2444 80.849068"
   height="80.849068"
   width="82.2444"
   xml:space="preserve"
   id="svg2"
   version="1.1"><metadata
     id="metadata8"><rdf:RDF><cc:Work
         rdf:about=""><dc:format>image/svg+xml</dc:format><dc:type
           rdf:resource="http://purl.org/dc/dcmitype/StillImage" /></cc:Work></rdf:RDF></metadata><defs
     id="defs6"><clipPath
       id="clipPath18"
       clipPathUnits="userSpaceOnUse"><path
         id="path16"
         d="M 0,60.637 H 61.683 V 0 H 0 Z" /></clipPath></defs><g
     transform="matrix(1.3333333,0,0,-1.3333333,0,80.849067)"
     id="g10"><g
       id="g12"><g
         clip-path="url(#clipPath18)"
         id="g14"><g
           transform="translate(25.4808,6.3728)"
           id="g20"><path
             id="path22"
             style="fill:#ffffff;fill-opacity:1;fill-rule:nonzero;stroke:none"
             d="M 0,0 C 0.189,0 0.378,0 0.504,-0.062 1.703,-0.31 2.649,-1.423 3.532,-2.536 4.1,-3.217 4.919,-4.27 5.361,-4.27 c 0.441,0 1.324,1.053 1.829,1.734 0.883,1.113 1.766,2.226 3.027,2.474 1.262,0.248 2.586,-0.433 3.847,-1.175 0.694,-0.371 1.893,-1.052 2.271,-0.867 0.378,0.186 0.757,1.423 1.009,2.29 0.379,1.361 0.82,2.722 1.829,3.403 1.073,0.681 2.523,0.557 3.974,0.371 0.82,-0.062 2.207,-0.247 2.522,0.062 0.316,0.309 0.127,1.67 0.064,2.475 -0.19,1.423 -0.316,2.846 0.378,3.899 0.694,1.051 2.144,1.422 3.469,1.793 0.883,0.248 2.145,0.62 2.334,0.991 0.126,0.371 -0.505,1.547 -0.883,2.227 -0.694,1.238 -1.451,2.536 -1.198,3.775 0.251,1.174 1.387,2.103 2.522,2.969 0.694,0.557 1.766,1.362 1.766,1.794 0,0.434 -1.072,1.3 -1.766,1.795 -1.135,0.866 -2.271,1.733 -2.522,2.97 -0.253,1.237 0.441,2.537 1.198,3.774 0.378,0.681 1.072,1.857 0.883,2.228 -0.189,0.371 -1.451,0.742 -2.334,0.99 -1.388,0.371 -2.775,0.804 -3.469,1.794 -0.694,1.052 -0.568,2.475 -0.378,3.898 0.063,0.805 0.252,2.166 -0.064,2.475 -0.315,0.31 -1.702,0.124 -2.522,0.062 -1.451,-0.186 -2.901,-0.309 -3.974,0.371 -1.072,0.681 -1.45,2.104 -1.829,3.403 -0.252,0.867 -0.631,2.104 -1.009,2.29 C 15.957,50.119 14.758,49.5 14.064,49.128 12.803,48.448 11.479,47.705 10.217,47.953 9.019,48.2 8.073,49.314 7.19,50.428 6.622,51.108 5.802,52.16 5.361,52.16 4.919,52.16 4.036,51.046 3.532,50.366 2.649,49.252 1.766,48.139 0.504,47.891 c -1.261,-0.247 -2.586,0.433 -3.847,1.175 -0.694,0.372 -1.892,1.053 -2.27,0.867 -0.379,-0.186 -0.758,-1.423 -1.01,-2.289 -0.378,-1.362 -0.819,-2.723 -1.829,-3.404 -1.072,-0.68 -2.523,-0.556 -3.973,-0.371 -0.82,0.062 -2.208,0.248 -2.523,-0.062 -0.315,-0.309 -0.126,-1.67 -0.063,-2.475 0.189,-1.423 0.315,-2.846 -0.379,-3.897 -0.693,-1.053 -2.144,-1.424 -3.468,-1.795 -0.883,-0.247 -2.145,-0.619 -2.334,-0.991 -0.126,-0.371 0.505,-1.546 0.883,-2.226 0.694,-1.238 1.451,-2.537 1.198,-3.775 -0.252,-1.175 -1.387,-2.104 -2.522,-2.97 -0.694,-0.557 -1.766,-1.362 -1.766,-1.794 0,-0.434 1.072,-1.3 1.766,-1.795 1.135,-0.866 2.27,-1.733 2.522,-2.97 0.253,-1.237 -0.441,-2.536 -1.198,-3.774 -0.378,-0.681 -1.072,-1.856 -0.883,-2.228 0.189,-0.371 1.451,-0.742 2.334,-0.989 1.387,-0.371 2.775,-0.805 3.468,-1.795 0.694,-1.052 0.568,-2.475 0.379,-3.897 -0.063,-0.805 -0.252,-2.166 0.063,-2.476 0.315,-0.31 1.703,-0.123 2.523,-0.062 1.45,0.186 2.901,0.31 3.973,-0.371 1.073,-0.68 1.451,-2.104 1.829,-3.403 0.252,-0.866 0.631,-2.103 1.01,-2.289 0.378,-0.186 1.576,0.495 2.27,0.866 C -2.271,-0.557 -1.135,0 0,0 m 5.361,-6.373 c -1.514,0 -2.586,1.361 -3.595,2.537 -0.568,0.681 -1.262,1.608 -1.703,1.671 -0.441,0.123 -1.514,-0.495 -2.334,-0.929 -1.387,-0.742 -2.838,-1.547 -4.226,-0.989 -1.387,0.557 -1.829,2.165 -2.27,3.65 -0.253,0.804 -0.567,1.98 -0.946,2.228 -0.378,0.247 -1.577,0.123 -2.46,0 -1.577,-0.186 -3.28,-0.371 -4.289,0.681 -1.072,1.051 -0.883,2.66 -0.693,4.207 0.126,0.866 0.252,2.042 0,2.413 -0.253,0.371 -1.388,0.68 -2.271,0.927 -1.577,0.434 -3.154,0.867 -3.721,2.228 -0.568,1.361 0.252,2.785 1.009,4.145 0.441,0.744 1.009,1.795 0.946,2.291 -0.063,0.432 -1.009,1.175 -1.703,1.669 -1.198,0.929 -2.586,2.042 -2.586,3.528 0,1.485 1.388,2.537 2.586,3.526 0.694,0.558 1.64,1.238 1.703,1.671 0.063,0.434 -0.505,1.485 -0.946,2.289 -0.757,1.361 -1.577,2.785 -1.009,4.146 0.567,1.361 2.207,1.795 3.721,2.227 0.82,0.248 2.018,0.558 2.271,0.929 0.252,0.371 0.126,1.547 0,2.413 -0.19,1.547 -0.379,3.217 0.693,4.207 1.072,1.052 2.712,0.867 4.289,0.681 0.883,-0.124 2.082,-0.247 2.46,0 0.379,0.247 0.693,1.361 0.946,2.227 0.441,1.547 0.883,3.094 2.27,3.651 1.388,0.557 2.839,-0.247 4.226,-0.99 0.82,-0.309 1.893,-0.928 2.334,-0.804 0.441,0.062 1.198,0.989 1.703,1.67 1.009,1.176 2.081,2.537 3.595,2.537 1.514,0 2.586,-1.361 3.595,-2.537 0.567,-0.681 1.261,-1.608 1.703,-1.67 0.441,-0.124 1.513,0.495 2.333,0.928 1.388,0.742 2.839,1.547 4.226,0.99 1.387,-0.557 1.829,-2.166 2.271,-3.651 0.252,-0.804 0.567,-1.98 0.946,-2.227 0.378,-0.248 1.577,-0.124 2.46,0 1.576,0.185 3.279,0.371 4.288,-0.681 1.072,-1.052 0.883,-2.661 0.694,-4.208 -0.126,-0.866 -0.252,-2.041 0,-2.412 0.252,-0.372 1.388,-0.681 2.27,-0.929 1.578,-0.432 3.154,-0.866 3.722,-2.227 0.568,-1.362 -0.252,-2.785 -1.009,-4.146 -0.442,-0.742 -1.009,-1.794 -0.946,-2.289 0.063,-0.434 1.009,-1.176 1.703,-1.671 1.198,-0.928 2.586,-2.042 2.586,-3.526 0,-1.486 -1.388,-2.537 -2.586,-3.528 -0.694,-0.556 -1.64,-1.237 -1.703,-1.67 -0.063,-0.433 0.504,-1.485 0.946,-2.289 0.757,-1.362 1.577,-2.785 1.009,-4.146 C 33.301,11.014 31.661,10.581 30.147,10.147 29.328,9.9 28.129,9.591 27.877,9.22 27.625,8.849 27.751,7.673 27.877,6.807 28.066,5.26 28.255,3.589 27.183,2.599 26.111,1.547 24.471,1.732 22.895,1.918 c -0.883,0.124 -2.082,0.248 -2.46,0 -0.379,-0.247 -0.694,-1.361 -0.946,-2.228 -0.442,-1.546 -0.884,-3.093 -2.271,-3.65 -1.387,-0.557 -2.838,0.248 -4.226,0.99 -0.757,0.433 -1.829,0.991 -2.333,0.928 C 10.217,-2.104 9.46,-3.031 8.956,-3.712 7.947,-5.012 6.875,-6.373 5.361,-6.373" /></g><g
           transform="translate(25.6068,21.1775)"
           id="g24"><path
             id="path26"
             style="fill:#ffffff;fill-opacity:1;fill-rule:nonzero;stroke:none"
             d="m 0,0 c -0.315,0 -0.631,0.123 -0.883,0.369 l -6.118,5.972 c -0.504,0.492 -0.504,1.23 0,1.723 0.504,0.493 1.262,0.493 1.766,0 L 0,2.954 15.642,18.222 c 0.504,0.492 1.261,0.492 1.766,0 0.504,-0.493 0.504,-1.232 0,-1.724 L 0.946,0.369 C 0.694,0.123 0.378,0 0,0" /></g></g></g></g></svg>