<?xml version="1.0" encoding="UTF-8" standalone="no"?>
<svg
   xmlns:dc="http://purl.org/dc/elements/1.1/"
   xmlns:cc="http://creativecommons.org/ns#"
   xmlns:rdf="http://www.w3.org/1999/02/22-rdf-syntax-ns#"
   xmlns:svg="http://www.w3.org/2000/svg"
   xmlns="http://www.w3.org/2000/svg"
   viewBox="0 0 56.010399 80.31427"
   height="80.31427"
   width="56.010399"
   xml:space="preserve"
   id="svg2"
   version="1.1"><metadata
     id="metadata8"><rdf:RDF><cc:Work
         rdf:about=""><dc:format>image/svg+xml</dc:format><dc:type
           rdf:resource="http://purl.org/dc/dcmitype/StillImage" /></cc:Work></rdf:RDF></metadata><defs
     id="defs6"><clipPath
       id="clipPath18"
       clipPathUnits="userSpaceOnUse"><path
         id="path16"
         d="M 0,60.236 H 42.008 V 0 H 0 Z" /></clipPath></defs><g
     transform="matrix(1.3333333,0,0,-1.3333333,0,80.314267)"
     id="g10"><g
       id="g12"><g
         clip-path="url(#clipPath18)"
         id="g14"><g
           transform="translate(41.0076,0.0606)"
           id="g20"><path
             id="path22"
             style="fill:none;stroke:#ffffff;stroke-width:2;stroke-linecap:butt;stroke-linejoin:miter;stroke-miterlimit:10;stroke-dasharray:none;stroke-opacity:1"
             d="m 0,0 v 17.847 11.271 9.393 c 0,11.412 -8.956,20.664 -20.004,20.664 -11.047,0 -20.004,-9.252 -20.004,-20.664 V 26.3 h 4.547 V 14.09 h 14.548 V 0.939 h -7.274" /></g><g
           transform="translate(18.2762,14.1505)"
           id="g24"><path
             id="path26"
             style="fill:none;stroke:#ffffff;stroke-width:2;stroke-linecap:butt;stroke-linejoin:miter;stroke-miterlimit:10;stroke-dasharray:none;stroke-opacity:1"
             d="M 0,0 H 5.456" /></g><g
           transform="translate(34.4895,45.0626)"
           id="g28"><path
             id="path30"
             style="fill:none;stroke:#ffffff;stroke-width:2;stroke-linecap:butt;stroke-linejoin:miter;stroke-miterlimit:10;stroke-dasharray:none;stroke-opacity:1"
             d="m 0,0 c 0.09,0.327 0.153,0.666 0.153,1.023 0,2.075 -1.628,3.757 -3.637,3.757 -0.321,0 -0.626,-0.056 -0.923,-0.137 0.002,0.047 0.014,0.09 0.014,0.137 0,2.075 -1.628,3.758 -3.637,3.758 -0.755,0 -1.455,-0.238 -2.036,-0.644 -0.497,1.464 -1.832,2.522 -3.42,2.522 -1.587,0 -2.923,-1.058 -3.419,-2.522 -0.581,0.406 -1.282,0.644 -2.036,0.644 -2.009,0 -3.637,-1.683 -3.637,-3.758 -2.009,0 -3.637,-1.682 -3.637,-3.757 0,-0.357 0.063,-0.696 0.153,-1.023 -1.646,-0.359 -2.881,-1.866 -2.881,-3.673 0,-2.075 1.629,-3.758 3.637,-3.758 h 24.55 c 2.009,0 3.637,1.683 3.637,3.758 C 2.881,-1.866 1.646,-0.359 0,0 Z" /></g><g
           transform="translate(21.9134,41.8594)"
           id="g32"><path
             id="path34"
             style="fill:none;stroke:#ffffff;stroke-width:2;stroke-linecap:butt;stroke-linejoin:miter;stroke-miterlimit:10;stroke-dasharray:none;stroke-opacity:1"
             d="M 0,0 2.728,2.817 5.456,0" /></g><g
           transform="translate(24.6409,44.6768)"
           id="g36"><path
             id="path38"
             style="fill:none;stroke:#ffffff;stroke-width:2;stroke-linecap:butt;stroke-linejoin:miter;stroke-miterlimit:10;stroke-dasharray:none;stroke-opacity:1"
             d="m 0,0 v -8.923 c 0,-1.038 0.814,-1.879 1.819,-1.879 h 7.274 c 1.005,0 1.818,-0.841 1.818,-1.879 0,-1.038 -0.813,-1.878 -1.818,-1.878 H -0.909 c -1.005,0 -1.819,-0.84 -1.819,-1.878 0,-1.039 0.814,-1.879 1.819,-1.879 h 7.274 l 2.728,-2.818" /></g><g
           transform="translate(10.0925,41.3897)"
           id="g40"><path
             id="path42"
             style="fill:none;stroke:#ffffff;stroke-width:2;stroke-linecap:butt;stroke-linejoin:miter;stroke-miterlimit:10;stroke-dasharray:none;stroke-opacity:1"
             d="M 0,0 H 1.819" /></g><g
           transform="translate(13.7298,41.3897)"
           id="g44"><path
             id="path46"
             style="fill:none;stroke:#ffffff;stroke-width:2;stroke-linecap:butt;stroke-linejoin:miter;stroke-miterlimit:10;stroke-dasharray:none;stroke-opacity:1"
             d="M 0,0 H 1.818" /></g><g
           transform="translate(17.367,41.3897)"
           id="g48"><path
             id="path50"
             style="fill:none;stroke:#ffffff;stroke-width:2;stroke-linecap:butt;stroke-linejoin:miter;stroke-miterlimit:10;stroke-dasharray:none;stroke-opacity:1"
             d="M 0,0 H 1.818" /></g></g></g></g></svg>