<?xml version="1.0" encoding="UTF-8" standalone="no"?>
<svg
   xmlns:dc="http://purl.org/dc/elements/1.1/"
   xmlns:cc="http://creativecommons.org/ns#"
   xmlns:rdf="http://www.w3.org/1999/02/22-rdf-syntax-ns#"
   xmlns:svg="http://www.w3.org/2000/svg"
   xmlns="http://www.w3.org/2000/svg"
   viewBox="0 0 83.964668 80.893333"
   height="80.893333"
   width="83.964668"
   xml:space="preserve"
   id="svg2"
   version="1.1"><metadata
     id="metadata8"><rdf:RDF><cc:Work
         rdf:about=""><dc:format>image/svg+xml</dc:format><dc:type
           rdf:resource="http://purl.org/dc/dcmitype/StillImage" /></cc:Work></rdf:RDF></metadata><defs
     id="defs6"><clipPath
       id="clipPath38"
       clipPathUnits="userSpaceOnUse"><path
         id="path36"
         d="M 0,60.67 H 62.974 V 0 H 0 Z" /></clipPath></defs><g
     transform="matrix(1.3333333,0,0,-1.3333333,0,80.893333)"
     id="g10"><path
       id="path12"
       style="fill:#ffffff;fill-opacity:1;fill-rule:nonzero;stroke:none"
       d="m 6.17,24.927 h 4.9 v -3.665 h -4.9 z" /><path
       id="path14"
       style="fill:#ffffff;fill-opacity:1;fill-rule:nonzero;stroke:none"
       d="m 13.43,24.927 h 4.9 v -3.665 h -4.9 z" /><path
       id="path16"
       style="fill:#ffffff;fill-opacity:1;fill-rule:nonzero;stroke:none"
       d="m 20.689,24.927 h 4.9 v -3.665 h -4.9 z" /><path
       id="path18"
       style="fill:#ffffff;fill-opacity:1;fill-rule:nonzero;stroke:none"
       d="m 6.17,17.596 h 4.9 V 13.93 h -4.9 z" /><path
       id="path20"
       style="fill:#ffffff;fill-opacity:1;fill-rule:nonzero;stroke:none"
       d="m 13.43,17.596 h 4.9 V 13.93 h -4.9 z" /><path
       id="path22"
       style="fill:#ffffff;fill-opacity:1;fill-rule:nonzero;stroke:none"
       d="m 20.689,17.596 h 4.9 V 13.93 h -4.9 z" /><path
       id="path24"
       style="fill:#ffffff;fill-opacity:1;fill-rule:nonzero;stroke:none"
       d="m 6.17,10.264 h 4.9 V 6.598 h -4.9 z" /><path
       id="path26"
       style="fill:#ffffff;fill-opacity:1;fill-rule:nonzero;stroke:none"
       d="m 13.43,10.264 h 4.9 V 6.598 h -4.9 z" /><path
       id="path28"
       style="fill:#ffffff;fill-opacity:1;fill-rule:nonzero;stroke:none"
       d="m 20.689,10.264 h 4.9 V 6.598 h -4.9 z" /><path
       id="path30"
       style="fill:#ffffff;fill-opacity:1;fill-rule:nonzero;stroke:none"
       d="M 6.17,32.26 H 25.588 V 28.594 H 6.17 Z" /><g
       id="g32"><g
         clip-path="url(#clipPath38)"
         id="g34"><g
           transform="translate(59.3441,14.2966)"
           id="g40"><path
             id="path42"
             style="fill:#ffffff;fill-opacity:1;fill-rule:nonzero;stroke:none"
             d="m 0,0 c 0,-0.607 -0.488,-1.1 -1.089,-1.1 h -26.496 v 20.712 c -0.004,2.631 -2.114,4.762 -4.719,4.766 h -5.262 v 17.23 c 0,0.607 0.487,1.1 1.088,1.1 h 35.389 c 0.601,0 1.089,-0.493 1.089,-1.1 z m -31.215,-9.531 c 0,-0.608 -0.487,-1.1 -1.089,-1.1 h -22.321 c -0.602,0 -1.089,0.492 -1.089,1.1 v 29.143 c 0,0.608 0.487,1.1 1.089,1.1 h 22.321 c 0.602,0 1.089,-0.492 1.089,-1.1 z m 30.126,55.905 h -35.389 c -2.604,-0.005 -4.714,-2.136 -4.718,-4.766 v -17.23 h -13.429 c -2.605,-0.004 -4.715,-2.135 -4.719,-4.766 V -9.531 c 0.004,-2.63 2.114,-4.762 4.719,-4.766 h 22.321 c 2.605,0.004 4.715,2.136 4.719,4.766 v 4.765 H -1.089 C 1.515,-4.762 3.625,-2.63 3.629,0 v 41.608 c -0.004,2.63 -2.114,4.761 -4.718,4.766" /></g><path
           id="path44"
           style="fill:#ffffff;fill-opacity:1;fill-rule:nonzero;stroke:none"
           d="m 25.044,51.322 h 4.9 v -3.666 h -4.9 z" /><path
           id="path46"
           style="fill:#ffffff;fill-opacity:1;fill-rule:nonzero;stroke:none"
           d="M 34.481,51.322 H 53.899 V 47.656 H 34.481 Z" /><path
           id="path48"
           style="fill:#ffffff;fill-opacity:1;fill-rule:nonzero;stroke:none"
           d="m 10.979,10.264 h 4.9 V 6.598 h -4.9 z" /><path
           id="path50"
           style="fill:#ffffff;fill-opacity:1;fill-rule:nonzero;stroke:none"
           d="M 34.481,43.99 H 53.899 V 40.325 H 34.481 Z" /><path
           id="path52"
           style="fill:#ffffff;fill-opacity:1;fill-rule:nonzero;stroke:none"
           d="M 34.481,36.659 H 53.899 V 32.993 H 34.481 Z" /><path
           id="path54"
           style="fill:#ffffff;fill-opacity:1;fill-rule:nonzero;stroke:none"
           d="M 34.481,29.327 H 53.899 V 25.661 H 34.481 Z" /><path
           id="path56"
           style="fill:#ffffff;fill-opacity:1;fill-rule:nonzero;stroke:none"
           d="M 34.481,21.995 H 53.899 V 18.329 H 34.481 Z" /></g></g></g></svg>