<?xml version="1.0" encoding="UTF-8" standalone="no"?>
<svg
   xmlns:dc="http://purl.org/dc/elements/1.1/"
   xmlns:cc="http://creativecommons.org/ns#"
   xmlns:rdf="http://www.w3.org/1999/02/22-rdf-syntax-ns#"
   xmlns:svg="http://www.w3.org/2000/svg"
   xmlns="http://www.w3.org/2000/svg"
   viewBox="0 0 80.114799 80.140404"
   height="80.140404"
   width="80.114799"
   xml:space="preserve"
   id="svg2"
   version="1.1"><metadata
     id="metadata8"><rdf:RDF><cc:Work
         rdf:about=""><dc:format>image/svg+xml</dc:format><dc:type
           rdf:resource="http://purl.org/dc/dcmitype/StillImage" /></cc:Work></rdf:RDF></metadata><defs
     id="defs6"><clipPath
       id="clipPath18"
       clipPathUnits="userSpaceOnUse"><path
         id="path16"
         d="M 0,60.105 H 60.086 V 0 H 0 Z" /></clipPath></defs><g
     transform="matrix(1.3333333,0,0,-1.3333333,0,80.1404)"
     id="g10"><g
       id="g12"><g
         clip-path="url(#clipPath18)"
         id="g14"><g
           transform="translate(13.1439,24.5881)"
           id="g20"><path
             id="path22"
             style="fill:#ffffff;fill-opacity:1;fill-rule:nonzero;stroke:none"
             d="m 0,0 0.479,-2.524 c 0.103,-0.539 0.525,-0.962 1.065,-1.064 l 3.88,-0.751 2.17,-3.317 c 0.173,-0.261 0.431,-0.453 0.73,-0.543 l -7.01,-11.704 -1.815,6.383 c -0.193,0.677 -0.877,1.087 -1.564,0.94 l -6.927,-1.377 z m 33.799,0.021 8.992,-13.978 -6.927,1.377 c -0.687,0.147 -1.372,-0.263 -1.565,-0.94 l -1.815,-6.383 -7.031,11.704 c 0.299,0.09 0.558,0.282 0.731,0.543 l 2.17,3.317 3.88,0.751 c 0.539,0.102 0.962,0.524 1.064,1.064 z M 24.828,20.426 23.45,18.965 14.771,9.702 10.223,13.749 8.721,15.085 6.05,12.08 l 1.502,-1.314 6.009,-5.341 1.46,-1.294 1.336,1.419 10.014,10.682 1.377,1.46 z m -7.929,5.737 c 7.391,0 13.353,-5.962 13.353,-13.352 0,-7.391 -5.962,-13.353 -13.353,-13.353 -7.39,0 -13.352,5.962 -13.352,13.353 0,7.39 5.962,13.352 13.352,13.352 m 0,2.67 c -8.833,0 -16.023,-7.189 -16.023,-16.022 0,-8.834 7.19,-16.024 16.023,-16.024 8.834,0 16.023,7.19 16.023,16.024 0,8.833 -7.189,16.022 -16.023,16.022 m 0,3.735 2.984,-2.045 c 0.304,-0.211 0.681,-0.286 1.043,-0.208 l 3.505,0.751 1.982,-3.025 c 0.2,-0.307 0.517,-0.518 0.876,-0.584 l 3.568,-0.668 0.667,-3.568 c 0.067,-0.36 0.278,-0.676 0.585,-0.876 l 3.025,-1.982 -0.751,-3.526 C 34.305,16.476 34.38,16.098 34.591,15.794 L 36.636,12.811 34.591,9.848 C 34.38,9.544 34.305,9.166 34.383,8.805 L 35.134,5.278 32.109,3.297 C 31.802,3.097 31.591,2.78 31.524,2.421 L 30.857,-1.147 27.289,-1.814 C 26.93,-1.881 26.613,-2.093 26.413,-2.399 l -1.982,-3.025 -3.505,0.751 c -0.362,0.078 -0.739,0.002 -1.043,-0.209 l -2.984,-2.045 -2.983,2.045 c -0.304,0.211 -0.682,0.287 -1.043,0.209 L 9.347,-5.424 7.365,-2.399 c -0.2,0.306 -0.517,0.518 -0.877,0.585 L 2.921,-1.147 2.253,2.421 C 2.187,2.78 1.976,3.097 1.669,3.297 l -3.025,1.981 0.751,3.527 c 0.078,0.361 0.002,0.739 -0.209,1.043 l -2.044,2.963 2.044,2.983 c 0.211,0.304 0.287,0.682 0.209,1.043 l -0.751,3.526 3.025,1.982 c 0.307,0.2 0.518,0.516 0.584,0.876 l 0.668,3.568 3.567,0.668 c 0.36,0.066 0.677,0.277 0.877,0.584 l 1.982,3.025 3.526,-0.751 c 0.361,-0.078 0.739,-0.003 1.043,0.208 z M 16.753,35.51 C 16.536,35.484 16.328,35.405 16.148,35.28 L 12.873,33.069 8.992,33.862 C 8.455,33.98 7.899,33.756 7.594,33.298 L 5.424,29.981 1.544,29.23 C 1.004,29.128 0.582,28.706 0.479,28.166 l -0.75,-3.881 -3.318,-2.169 C -4.046,21.811 -4.27,21.255 -4.152,20.718 l 0.793,-3.881 -2.212,-3.275 c -0.308,-0.454 -0.308,-1.049 0,-1.502 L -3.359,8.805 -4.152,4.924 C -4.27,4.387 -4.046,3.832 -3.589,3.526 l 1.878,-1.231 -11.225,-17.462 c -0.395,-0.623 -0.211,-1.448 0.412,-1.844 0.293,-0.185 0.647,-0.251 0.986,-0.18 l 8.784,1.753 2.337,-8.159 c 0.189,-0.712 0.921,-1.135 1.634,-0.946 0.339,0.091 0.629,0.311 0.806,0.613 l 9.765,16.274 1.085,0.229 3.275,-2.212 c 0.22,-0.157 0.481,-0.244 0.751,-0.25 0.27,0.006 0.532,0.093 0.751,0.25 l 3.276,2.212 1.085,-0.229 9.764,-16.274 c 0.374,-0.635 1.193,-0.847 1.828,-0.473 0.302,0.178 0.522,0.467 0.613,0.807 l 2.337,8.158 8.783,-1.753 c 0.723,-0.15 1.429,0.315 1.579,1.037 0.07,0.34 0.005,0.694 -0.181,0.987 l -11.225,17.483 1.857,1.21 c 0.458,0.306 0.682,0.861 0.564,1.398 l -0.793,3.881 2.211,3.255 c 0.309,0.453 0.309,1.048 0,1.502 l -2.211,3.275 0.793,3.881 c 0.118,0.537 -0.106,1.093 -0.564,1.398 l -3.317,2.17 -0.751,3.88 c -0.102,0.54 -0.525,0.962 -1.064,1.064 l -3.88,0.751 -2.17,3.317 c -0.306,0.458 -0.861,0.682 -1.398,0.564 l -3.86,-0.793 -3.276,2.212 c -0.262,0.18 -0.58,0.262 -0.897,0.229 z" /></g></g></g></g></svg>